<svg version="1.1" viewBox="0.0 0.0 960.0 540.0" fill="none" stroke="none" stroke-linecap="square" stroke-miterlimit="10" xmlns:xlink="http://www.w3.org/1999/xlink" xmlns="http://www.w3.org/2000/svg"><clipPath id="p.0"><path d="m0 0l960.0 0l0 540.0l-960.0 0l0 -540.0z" clip-rule="nonzero"/></clipPath><g clip-path="url(#p.0)"><path fill="#ffffff" d="m0 0l960.0 0l0 540.0l-960.0 0z" fill-rule="evenodd"/><path fill="#000000" fill-opacity="0.0" d="m32.725285 192.46194l894.5512 0l0 215.49606l-894.5512 0z" fill-rule="evenodd"/><path fill="#000000" d="m425.9038 122.72365q12.359375 -6.25 23.046875 -6.25q13.921875 0 18.609375 15.109375q4.296875 13.53125 10.9375 27.34375q11.46875 -4.953125 16.015625 -7.5625q6.390625 -3.640625 10.296875 -8.71875q4.8125 -6.375 12.234375 -6.375q8.46875 0 13.40625 3.765625q2.609375 2.09375 2.609375 5.078125q0 3.65625 -4.953125 7.03125q-16.796875 11.46875 -43.21875 20.703125q10.015625 20.703125 18.609375 36.203125q28.265625 -8.984375 36.328125 -18.875q5.34375 -6.640625 14.0625 -6.640625q10.03125 0 14.1875 5.328125q1.5625 1.953125 1.5625 4.296875q0 5.21875 -9.890625 10.6875q-18.21875 10.28125 -47.90625 19.921875q10.546875 18.359375 22.515625 35.67186q8.078125 11.578125 8.078125 18.75q0 4.421875 -2.734375 9.109375q-2.46875 4.296875 -6.640625 4.296875q-4.296875 0 -7.9375 -3.25q-10.296875 -8.984375 -37.375 -14.453125l3.0 -9.890625q12.234375 1.03125 24.734375 3.25l-1.6875 -3.25l-5.21875 -10.29686l-5.328125 -10.671875l-5.609375 -11.0625l-1.8125 -3.65625q-39.59375 10.6875 -60.546875 10.6875q-31.640625 0 -49.34375 -24.09375l6.109375 -8.71875q16.546875 18.609375 42.3125 18.609375q20.3125 0 54.171875 -10.9375l-0.90625 -1.6875q-8.859375 -17.0625 -16.671875 -31.765625l-1.296875 -2.484375q-25.65625 7.421875 -41.40625 7.421875q-20.828125 0 -36.203125 -15.484375l5.34375 -8.984375q10.9375 10.015625 29.421875 10.015625q12.625 0 35.671875 -6.640625q-6.25 -11.578125 -11.96875 -21.484375q-6.640625 -11.84375 -13.8125 -11.84375q-2.59375 0 -9.5 1.828125l-1.296875 -10.03125zm-17.0625 168.74998q6.125 19.0 26.5625 29.546875q17.1875 8.734375 43.484375 8.734375q16.28125 0 26.4375 -3.515625q4.6875 -1.703125 8.71875 -1.703125q7.296875 0 13.546875 3.90625q6.125 3.78125 6.125 9.515625q0 11.1875 -36.203125 11.1875q-41.796875 0 -68.359375 -14.1875q-25.25 -13.40625 -30.984375 -38.15625l10.671875 -5.328125z" fill-rule="nonzero"/><path fill="#000000" fill-opacity="0.0" d="m32.72441 297.54593l894.55115 0l0 83.212616l-894.55115 0z" fill-rule="evenodd"/></g></svg>