<svg version="1.1" viewBox="0.0 0.0 960.0 540.0" fill="none" stroke="none" stroke-linecap="square" stroke-miterlimit="10" xmlns:xlink="http://www.w3.org/1999/xlink" xmlns="http://www.w3.org/2000/svg"><clipPath id="p.0"><path d="m0 0l960.0 0l0 540.0l-960.0 0l0 -540.0z" clip-rule="nonzero"/></clipPath><g clip-path="url(#p.0)"><path fill="#ffffff" d="m0 0l960.0 0l0 540.0l-960.0 0z" fill-rule="evenodd"/><path fill="#000000" fill-opacity="0.0" d="m32.725285 192.46194l894.5512 0l0 215.49606l-894.5512 0z" fill-rule="evenodd"/><path fill="#000000" d="m445.22894 216.73927l6.390625 7.546875q-15.5 22.78125 -17.578125 47.124985q-0.78125 9.640625 -6.375 9.640625q-3.78125 0 -7.421875 -5.734375q-10.15625 -16.0 -10.15625 -41.531235q0 -20.4375 8.59375 -56.25q3.640625 -14.84375 3.640625 -22.0q0 -9.765625 -8.203125 -17.453125l7.9375 -6.625q23.171875 13.40625 23.171875 28.25q0 5.859375 -5.0625 14.1875q-3.515625 5.859375 -6.90625 15.625q-8.078125 23.3125 -8.078125 44.140625q0 3.640625 0.390625 8.203125l19.65625 -25.125zm54.4375 -84.109375q7.9375 -7.296875 17.046875 -7.296875q14.59375 0 20.3125 17.703125q7.953125 24.609375 7.953125 76.828125q0 56.374985 -26.046875 90.093735q-16.140625 20.96875 -41.40625 32.6875q-11.84375 5.328125 -28.515625 9.890625l-5.859375 -9.375q48.046875 -17.1875 66.28125 -52.734375q14.453125 -28.125 14.453125 -76.031235q0 -48.578125 -4.5625 -67.1875q-2.078125 -8.859375 -7.546875 -8.859375q-4.296875 0 -8.078125 3.0l-4.03125 -8.71875z" fill-rule="nonzero"/><path fill="#000000" fill-opacity="0.0" d="m32.72441 297.54593l894.55115 0l0 83.212616l-894.55115 0z" fill-rule="evenodd"/></g></svg>