<svg version="1.1" viewBox="0.0 0.0 960.0 540.0" fill="none" stroke="none" stroke-linecap="square" stroke-miterlimit="10" xmlns:xlink="http://www.w3.org/1999/xlink" xmlns="http://www.w3.org/2000/svg"><clipPath id="p.0"><path d="m0 0l960.0 0l0 540.0l-960.0 0l0 -540.0z" clip-rule="nonzero"/></clipPath><g clip-path="url(#p.0)"><path fill="#ffffff" d="m0 0l960.0 0l0 540.0l-960.0 0z" fill-rule="evenodd"/><path fill="#000000" fill-opacity="0.0" d="m32.725285 192.46194l894.5512 0l0 215.49606l-894.5512 0z" fill-rule="evenodd"/><path fill="#000000" d="m438.85938 131.45802q11.71875 -7.953125 22.515625 -7.953125q17.453125 0 20.578125 14.84375q2.46875 11.0625 12.375 31.25q4.421875 9.109375 5.59375 11.203125q30.078125 -10.03125 38.40625 -20.1875q4.046875 -4.953125 11.328125 -4.953125q6.78125 0 12.109375 3.0q5.078125 2.859375 5.078125 7.421875q0 4.8125 -10.28125 10.15625q-14.1875 7.421875 -49.09375 18.75q19.671875 34.765625 29.5625 45.046875q10.421875 10.9375 10.421875 19.406235q0 8.71875 -6.125 14.96875q-3.125 3.25 -5.734375 3.25q-2.859375 0 -6.640625 -3.515625q-13.40625 -12.625 -44.140625 -18.09375l3.90625 -9.89061q20.84375 2.609375 36.078125 6.90625q-15.375 -22.40625 -32.8125 -53.515625q-33.34375 9.234375 -59.375 9.234375q-29.03125 0 -45.703125 -22.390625l6.90625 -8.46875q13.140625 16.546875 38.140625 16.546875q20.578125 0 52.34375 -8.859375q-11.328125 -21.21875 -16.28125 -32.296875q-6.25 -13.796875 -16.265625 -13.796875q-5.34375 0 -11.71875 2.34375l-1.171875 -10.40625zm-19.65625 156.62498q2.59375 16.921875 17.953125 26.828125q18.5 11.96875 48.046875 11.96875q11.203125 0 19.40625 -2.46875q8.59375 -2.46875 13.546875 -2.46875q5.328125 0 9.375 2.859375q6.375 4.5625 6.375 11.203125q0 10.40625 -23.828125 10.40625q-32.15625 0 -51.171875 -5.203125q-25.125 -6.90625 -38.40625 -21.75q-10.671875 -12.109375 -12.5 -27.734375l11.203125 -3.640625z" fill-rule="nonzero"/><path fill="#000000" fill-opacity="0.0" d="m32.72441 297.54593l894.55115 0l0 83.212616l-894.55115 0z" fill-rule="evenodd"/></g></svg>